<svg width="34" height="32" viewBox="0 0 34 32" fill="none" xmlns="http://www.w3.org/2000/svg">
<g clip-path="url(#clip0_2398_2039)">
<path d="M-2.8419e-05 15.3941C0.108449 15.2318 0.259591 15.1028 0.436635 15.0215C0.613679 14.9402 0.809705 14.9096 1.00297 14.9333C2.70297 14.9333 4.40297 14.9333 6.20497 14.9333C6.83397 14.9333 7.08897 15.1893 7.08897 15.8208C7.09751 15.8888 7.09751 15.9576 7.08897 16.0256C7.08897 16.2645 7.08897 16.3669 7.41197 16.3499H11.39C13.1546 16.2917 14.896 16.7674 16.388 17.7152C16.5093 17.7921 16.6542 17.8224 16.796 17.8005H23.987C24.6518 17.775 25.3041 17.9875 25.8272 18.4002C26.3504 18.8129 26.7104 19.3988 26.843 20.0533C26.9046 20.2638 26.9333 20.4826 26.928 20.7019C26.928 20.9749 26.928 20.9749 27.2 20.9067C28.101 20.6165 29.036 20.3605 29.937 20.0533C30.3473 19.8928 30.7877 19.824 31.2272 19.852C31.6668 19.8799 32.095 20.0039 32.4819 20.2151C32.8688 20.4264 33.2051 20.7199 33.4673 21.0752C33.7295 21.4305 33.9113 21.8389 34 22.272V22.5451C33.9516 22.6121 33.9255 22.6927 33.9255 22.7755C33.9255 22.8582 33.9516 22.9389 34 23.0059V23.2789C33.9752 23.2789 33.9514 23.2888 33.9339 23.3064C33.9163 23.324 33.9065 23.3479 33.9065 23.3728C33.9065 23.3977 33.9163 23.4216 33.9339 23.4392C33.9514 23.4568 33.9752 23.4667 34 23.4667C33.8869 23.9831 33.6452 24.4623 33.2973 24.8593C32.9494 25.2563 32.5068 25.5582 32.011 25.7365C30.311 26.4363 28.492 27.1531 26.741 27.8869C24.5213 28.8584 22.1637 29.4746 19.754 29.7131C16.2034 30.0403 12.6284 29.4529 9.36697 28.0064C8.59805 27.6745 7.84881 27.2984 7.12297 26.88C7.00397 27.6309 6.83397 27.7675 6.08597 27.7675C4.38597 27.7675 2.68597 27.7675 0.985971 27.7675C0.790863 27.7914 0.592987 27.7592 0.415406 27.6746C0.237825 27.59 0.0878537 27.4565 -0.0170288 27.2896L-2.8419e-05 15.3941ZM20.162 23.4667H16.371C16.2657 23.4773 16.1593 23.4643 16.0596 23.4287C15.9599 23.393 15.8693 23.3355 15.7945 23.2603C15.7197 23.1852 15.6624 23.0943 15.6268 22.9942C15.5913 22.8941 15.5784 22.7873 15.589 22.6816C15.589 22.2891 15.912 22.0501 16.388 22.0501H20.604C21.828 22.0501 23.069 22.0501 24.31 22.0501C24.4935 22.0234 24.6698 21.9597 24.8283 21.8629C24.9867 21.7661 25.124 21.6381 25.232 21.4867C25.34 21.3353 25.4163 21.1635 25.4565 20.9817C25.4967 20.7999 25.5 20.6119 25.466 20.4288C25.4081 20.0869 25.2274 19.7781 24.9579 19.5611C24.6884 19.344 24.349 19.2338 24.004 19.2512H16.66C16.2732 19.2545 15.8943 19.1416 15.572 18.9269C14.5573 18.2644 13.3817 17.8927 12.172 17.8517C10.608 17.7493 9.02697 17.8517 7.46297 17.8517C7.19097 17.8517 7.12297 17.8517 7.12297 18.1931C7.12297 20.224 7.12297 22.272 7.12297 24.32C7.08667 24.6153 7.14869 24.9144 7.29936 25.1706C7.45003 25.4268 7.68089 25.6258 7.95597 25.7365C10.5063 27.2315 13.3611 28.1265 16.3056 28.3541C19.2501 28.5817 22.2077 28.1361 24.956 27.0507C27.132 26.2315 29.274 25.344 31.433 24.4395C31.8045 24.3172 32.1227 24.0701 32.334 23.7397C32.5132 23.4691 32.6063 23.1502 32.601 22.8252C32.5957 22.5002 32.4922 22.1845 32.3042 21.92C32.1162 21.6554 31.8526 21.4543 31.5483 21.3435C31.2439 21.2326 30.9132 21.2172 30.6 21.2992L26.231 22.6304C26.1583 22.6541 26.0895 22.6886 26.027 22.7328C25.4083 23.2596 24.6092 23.5229 23.8 23.4667C22.542 23.4667 21.352 23.4667 20.162 23.4667ZM5.66097 21.3333C5.66097 19.7803 5.66097 18.2272 5.66097 16.6741C5.66097 16.4011 5.57597 16.3499 5.32097 16.3499H1.69997C1.49597 16.3499 1.42797 16.3499 1.42797 16.6229V26.0437C1.42797 26.2656 1.42797 26.3168 1.71697 26.3168C2.92397 26.3168 4.14797 26.3168 5.35497 26.3168C5.62697 26.3168 5.69497 26.3168 5.69497 25.9925C5.66097 24.4395 5.66097 22.8864 5.66097 21.3333Z" fill="#343330"/>
<path d="M34 23.0571C33.9516 22.9901 33.9255 22.9095 33.9255 22.8267C33.9255 22.744 33.9516 22.6633 34 22.5963V23.0571Z" fill="#343330"/>
<path d="M22.1 15.6502C20.5689 15.6853 19.0615 15.2664 17.7664 14.4458C16.4713 13.6251 15.4461 12.4393 14.8189 11.0366C14.1917 9.63399 13.9906 8.0768 14.2405 6.55992C14.4905 5.04305 15.1805 3.63387 16.2242 2.50871C17.2679 1.38355 18.619 0.592388 20.1083 0.23422C21.5977 -0.123947 23.1592 -0.0332116 24.5974 0.495073C26.0356 1.02336 27.2868 1.96573 28.1942 3.20427C29.1016 4.4428 29.6251 5.9225 29.699 7.45819C29.7445 8.4991 29.5832 9.53868 29.2244 10.5164C28.8657 11.494 28.3166 12.3902 27.6093 13.1527C26.9021 13.9152 26.0507 14.5287 25.1048 14.9575C24.1589 15.3863 23.1375 15.6217 22.1 15.6502ZM21.913 14.2166C23.1739 14.22 24.4074 13.8479 25.4576 13.1475C26.5079 12.447 27.3276 11.4497 27.8132 10.2815C28.2988 9.11339 28.4285 7.8269 28.1858 6.58477C27.9431 5.34264 27.339 4.20065 26.4498 3.30321C25.5606 2.40578 24.4263 1.7932 23.1904 1.54294C21.9544 1.29269 20.6723 1.41599 19.5061 1.89727C18.34 2.37855 17.3421 3.19618 16.6389 4.24677C15.9356 5.29736 15.5584 6.53373 15.555 7.79952C15.5528 8.64286 15.7166 9.47832 16.037 10.2579C16.3575 11.0375 16.8282 11.7458 17.4222 12.3421C18.0162 12.9384 18.7217 13.411 19.4983 13.7327C20.2748 14.0544 21.107 14.2188 21.947 14.2166H21.913Z" fill="#343330"/>
<path d="M3.53602 24.8662C3.39894 24.8628 3.26589 24.8189 3.15353 24.74C3.04116 24.6611 2.95448 24.5507 2.90432 24.4226C2.85416 24.2945 2.84276 24.1544 2.87155 24.0198C2.90033 23.8852 2.96802 23.7621 3.06614 23.6659C3.16426 23.5698 3.28845 23.5048 3.42317 23.4792C3.55789 23.4535 3.69715 23.4683 3.82353 23.5218C3.9499 23.5752 4.05777 23.6649 4.13363 23.7795C4.20949 23.8942 4.24998 24.0288 4.25002 24.1664C4.25005 24.2598 4.23147 24.3522 4.19538 24.4382C4.1593 24.5242 4.10643 24.6022 4.0399 24.6674C3.97336 24.7326 3.89451 24.7837 3.80797 24.8179C3.72144 24.852 3.62897 24.8685 3.53602 24.8662Z" fill="#343330"/>
<path d="M22.678 5.68319H21.352C21.1626 5.68319 20.981 5.75871 20.8471 5.89313C20.7132 6.02756 20.638 6.20988 20.638 6.39999C20.638 6.59009 20.7132 6.77241 20.8471 6.90684C20.981 7.04127 21.1626 7.11679 21.352 7.11679H22.746C23.2796 7.12384 23.7907 7.33379 24.1761 7.70428C24.5615 8.07478 24.7927 8.57824 24.8229 9.11311C24.8531 9.64798 24.6801 10.1744 24.3388 10.5863C23.9975 10.9981 23.5134 11.2647 22.984 11.3323C22.746 11.3323 22.61 11.4347 22.661 11.7077C22.6788 11.8494 22.6788 11.9927 22.661 12.1344C22.6567 12.305 22.5872 12.4675 22.467 12.5882C22.3468 12.7089 22.185 12.7786 22.015 12.7829C21.8441 12.7901 21.6763 12.7355 21.5422 12.629C21.408 12.5225 21.3164 12.3712 21.284 12.2027C21.2756 12.1346 21.2756 12.0659 21.284 11.9979C21.284 11.3664 21.284 11.3664 20.655 11.3664H19.958C19.465 11.3664 19.159 11.0763 19.159 10.6496C19.1611 10.5502 19.1832 10.4523 19.2241 10.3617C19.265 10.2712 19.3238 10.1899 19.3969 10.1229C19.4701 10.0559 19.556 10.0045 19.6495 9.97177C19.7431 9.93909 19.8422 9.92583 19.941 9.93279H22.61C22.7038 9.93975 22.7981 9.92804 22.8874 9.89833C22.9767 9.86861 23.0592 9.82147 23.1303 9.75962C23.2014 9.69777 23.2596 9.62242 23.3016 9.53792C23.3436 9.45341 23.3685 9.3614 23.375 9.26719C23.3773 9.17081 23.3606 9.07492 23.3259 8.98502C23.2912 8.89511 23.2393 8.81294 23.173 8.74321C23.1067 8.67347 23.0273 8.61753 22.9395 8.57859C22.8516 8.53965 22.757 8.51847 22.661 8.51625H21.301C20.7603 8.51722 20.2397 8.31126 19.845 7.94033C19.4503 7.56939 19.2113 7.06137 19.1766 6.51972C19.1419 5.97807 19.3142 5.44352 19.6584 5.02492C20.0025 4.60633 20.4927 4.33516 21.029 4.26665C21.216 4.26665 21.267 4.26665 21.25 4.01065C21.2329 3.84612 21.2329 3.68025 21.25 3.51572C21.2522 3.42457 21.2725 3.33478 21.3098 3.25164C21.347 3.1685 21.4005 3.09371 21.4671 3.03167C21.5336 2.96963 21.6119 2.9216 21.6972 2.89042C21.7826 2.85924 21.8733 2.84553 21.964 2.85012C22.0539 2.84549 22.1438 2.85927 22.2282 2.89064C22.3126 2.92201 22.3897 2.9703 22.4549 3.03258C22.5202 3.09485 22.5721 3.1698 22.6075 3.25287C22.6429 3.33593 22.6611 3.42536 22.661 3.51572C22.661 3.75465 22.542 4.07892 22.661 4.19839C22.78 4.31785 23.154 4.19839 23.409 4.19839H24.072C24.2569 4.19839 24.4341 4.27211 24.5648 4.40333C24.6956 4.53456 24.769 4.71254 24.769 4.89812C24.769 5.0837 24.6956 5.26168 24.5648 5.39291C24.4341 5.52413 24.2569 5.59785 24.072 5.59785L22.678 5.68319Z" fill="#343330"/>
</g>
<defs>
<clipPath id="clip0_2398_2039">
<rect width="34" height="32" fill="white"/>
</clipPath>
</defs>
</svg>
