<svg width="32" height="32" viewBox="0 0 32 32" fill="none" xmlns="http://www.w3.org/2000/svg">
<path d="M24.7978 14.1696C25.3221 15.7163 25.4608 17.3677 25.2016 18.9802C24.9423 20.5928 24.293 22.1174 23.3103 23.4219C23.2389 23.5075 23.1997 23.6154 23.1997 23.7269C23.1997 23.8382 23.2389 23.9462 23.3103 24.0318L25.125 26.2035C25.4226 26.5456 25.6754 26.5456 25.8242 26.3821C27.4845 24.5211 28.5725 22.2208 28.9575 19.7568C29.3426 17.293 29.0083 14.7702 27.9949 12.4915C26.9816 10.2129 25.332 8.27508 23.2445 6.9108C21.1568 5.54652 18.7199 4.81372 16.2261 4.80036C13.7323 4.78698 11.2877 5.49362 9.18556 6.83544C7.08348 8.17727 5.4133 10.0973 4.37556 12.3649C3.3378 14.6326 2.97655 17.1515 3.33517 19.6195C3.6938 22.0874 4.75706 24.3994 6.39732 26.2779C6.46114 26.3397 6.54648 26.3742 6.63532 26.3742C6.72415 26.3742 6.80951 26.3397 6.87332 26.2779L9.35746 24.2995C9.38948 24.2702 9.41504 24.2346 9.43255 24.1949C9.45004 24.1552 9.45908 24.1123 9.45908 24.069C9.45908 24.0256 9.45004 23.9827 9.43255 23.943C9.41504 23.9032 9.38948 23.8677 9.35746 23.8384C8.14428 22.5219 7.34764 20.876 7.0678 19.1077C6.78796 17.3395 7.03743 15.528 7.78482 13.9013C8.53221 12.2745 9.7441 10.9052 11.268 9.96565C12.7919 9.02612 14.5596 8.55834 16.3487 8.62122C18.5059 8.621 20.5815 9.44591 22.1499 10.9269" stroke="#343330" stroke-miterlimit="10" stroke-linecap="round"/>
<path d="M24.4403 12.1762L17.1367 20.8037C16.8023 21.1093 16.3619 21.2725 15.9092 21.2586C15.4565 21.2447 15.027 21.0549 14.712 20.7293C14.3877 20.4032 14.2057 19.9621 14.2057 19.5021C14.2057 19.0423 14.3877 18.6011 14.712 18.2749L23.8602 11.5366C23.8602 11.5366 24.232 11.1945 24.4999 11.5366C24.5629 11.6345 24.5912 11.7507 24.5805 11.8667C24.5696 11.9826 24.5203 12.0916 24.4403 12.1762Z" stroke="#343330" stroke-miterlimit="10" stroke-linecap="round"/>
<path d="M3.24335 17.3824H7.06624" stroke="#343330" stroke-miterlimit="10" stroke-linecap="round"/>
<path d="M7.21497 8.4574L9.78834 11.1944" stroke="#343330" stroke-miterlimit="10" stroke-linecap="round"/>
<path d="M16.2001 4.81311L16.1406 8.66575" stroke="#343330" stroke-miterlimit="10" stroke-linecap="round"/>
<path d="M12.9414 24.4779H19.3972" stroke="#343330" stroke-miterlimit="10" stroke-linecap="round"/>
<path d="M9.25287 27.2H23.0123" stroke="#343330" stroke-miterlimit="10" stroke-linecap="round"/>
</svg>
