<?xml version="1.0" encoding="UTF-8"?>
<!DOCTYPE svg PUBLIC "-//W3C//DTD SVG 1.1//EN" "http://www.w3.org/Graphics/SVG/1.1/DTD/svg11.dtd">
<!-- Creator: CorelDRAW -->
<svg xmlns="http://www.w3.org/2000/svg" xml:space="preserve" width="20px" height="15px" version="1.1" style="shape-rendering:geometricPrecision; text-rendering:geometricPrecision; image-rendering:optimizeQuality; fill-rule:evenodd; clip-rule:evenodd"
viewBox="0 0 5.6 4.3"
 xmlns:xlink="http://www.w3.org/1999/xlink"
 xmlns:xodm="http://www.corel.com/coreldraw/odm/2003">
 <defs>
  <style type="text/css">
   <![CDATA[
    .fil0 {fill:#606062;fill-rule:nonzero}
   ]]>
  </style>
 </defs>
 <g id="Layer_x0020_1">
  <metadata id="CorelCorpID_0Corel-Layer"/>
  <path class="fil0" d="M0.35 0l4.9 0c0.1,0 0.19,0.04 0.25,0.1 0.06,0.07 0.1,0.15 0.1,0.25l0 1.72c0,0.1 -0.04,0.18 -0.1,0.25 -0.07,0.06 -0.15,0.1 -0.25,0.1l-4.9 0c-0.1,0 -0.19,-0.04 -0.25,-0.1 -0.06,-0.07 -0.1,-0.15 -0.1,-0.25l0 -1.72c0,-0.1 0.04,-0.18 0.1,-0.25 0.07,-0.06 0.15,-0.1 0.25,-0.1l0 0zm4.13 3.94c0.05,0 0.09,0.04 0.09,0.08 0,0.05 -0.04,0.09 -0.09,0.09l-0.09 0 0 0.1c0,0.05 -0.04,0.09 -0.09,0.09 -0.05,0 -0.09,-0.04 -0.09,-0.09l0 -0.1 -0.1 0c-0.05,0 -0.09,-0.04 -0.09,-0.09 0,-0.04 0.04,-0.08 0.09,-0.08l0.1 0 0 -0.1c0,-0.05 0.04,-0.09 0.09,-0.09 0.05,0 0.09,0.04 0.09,0.09l0 0.1 0.09 0zm-0.84 -0.48c0,-0.05 0.04,-0.09 0.09,-0.09 0.05,0 0.09,0.04 0.09,0.09l0 0.38c0,0.05 -0.04,0.09 -0.09,0.09 -0.05,0 -0.09,-0.04 -0.09,-0.09l0 -0.38zm-0.46 0.48c0.04,0 0.08,0.04 0.08,0.08 0,0.05 -0.04,0.09 -0.08,0.09l-0.1 0 0 0.1c0,0.05 -0.04,0.09 -0.09,0.09 -0.05,0 -0.09,-0.04 -0.09,-0.09l0 -0.1 -0.1 0c-0.05,0 -0.09,-0.04 -0.09,-0.09 0,-0.04 0.04,-0.08 0.09,-0.08l0.1 0 0 -0.1c0,-0.05 0.04,-0.09 0.09,-0.09 0.05,0 0.09,0.04 0.09,0.09l0 0.1 0.1 0zm-0.84 -0.48c0,-0.05 0.04,-0.09 0.09,-0.09 0.04,0 0.08,0.04 0.08,0.09l0 0.38c0,0.05 -0.04,0.09 -0.08,0.09 -0.05,0 -0.09,-0.04 -0.09,-0.09l0 -0.38zm-0.47 0.48c0.05,0 0.09,0.04 0.09,0.08 0,0.05 -0.04,0.09 -0.09,0.09l-0.1 0 0 0.1c0,0.05 -0.04,0.09 -0.09,0.09 -0.05,0 -0.09,-0.04 -0.09,-0.09l0 -0.1 -0.1 0c-0.05,0 -0.09,-0.04 -0.09,-0.09 0,-0.04 0.04,-0.08 0.09,-0.08l0.1 0 0 -0.1c0,-0.05 0.04,-0.09 0.09,-0.09 0.05,0 0.09,0.04 0.09,0.09l0 0.1 0.1 0zm-0.84 -0.48c0,-0.05 0.04,-0.09 0.09,-0.09 0.05,0 0.09,0.04 0.09,0.09l0 0.38c0,0.05 -0.04,0.09 -0.09,0.09 -0.05,0 -0.09,-0.04 -0.09,-0.09l0 -0.38zm3.45 -0.27c0.05,0 0.09,0.04 0.09,0.09 0,0.05 -0.04,0.09 -0.09,0.09l-0.09 0 0 0.09c0,0.05 -0.04,0.09 -0.09,0.09 -0.05,0 -0.09,-0.04 -0.09,-0.09l0 -0.09 -0.1 0c-0.05,0 -0.09,-0.04 -0.09,-0.09 0,-0.05 0.04,-0.09 0.09,-0.09l0.1 0 0 -0.1c0,-0.05 0.04,-0.09 0.09,-0.09 0.05,0 0.09,0.04 0.09,0.09l0 0.1 0.09 0zm-0.84 -0.47c0,-0.05 0.04,-0.09 0.09,-0.09 0.05,0 0.09,0.04 0.09,0.09l0 0.37c0,0.05 -0.04,0.09 -0.09,0.09 -0.05,0 -0.09,-0.04 -0.09,-0.09l0 -0.37zm-0.46 0.47c0.04,0 0.09,0.04 0.09,0.09 0,0.05 -0.05,0.09 -0.09,0.09l-0.1 0 0 0.09c0,0.05 -0.04,0.09 -0.09,0.09 -0.05,0 -0.09,-0.04 -0.09,-0.09l0 -0.09 -0.1 0c-0.05,0 -0.09,-0.04 -0.09,-0.09 0,-0.05 0.04,-0.09 0.09,-0.09l0.1 0 0 -0.1c0,-0.05 0.04,-0.09 0.09,-0.09 0.05,0 0.09,0.04 0.09,0.09l0 0.1 0.1 0zm-0.84 -0.47c0,-0.05 0.04,-0.09 0.09,-0.09 0.04,0 0.09,0.04 0.09,0.09l0 0.37c0,0.05 -0.05,0.09 -0.09,0.09 -0.05,0 -0.09,-0.04 -0.09,-0.09l0 -0.37zm-0.47 0.47c0.05,0 0.09,0.04 0.09,0.09 0,0.05 -0.04,0.09 -0.09,0.09l-0.1 0 0 0.09c0,0.05 -0.04,0.09 -0.09,0.09 -0.05,0 -0.09,-0.04 -0.09,-0.09l0 -0.09 -0.1 0c-0.05,0 -0.09,-0.04 -0.09,-0.09 0,-0.05 0.04,-0.09 0.09,-0.09l0.1 0 0 -0.1c0,-0.05 0.04,-0.09 0.09,-0.09 0.05,0 0.09,0.04 0.09,0.09l0 0.1 0.1 0zm-0.84 -0.47c0,-0.05 0.04,-0.09 0.09,-0.09 0.05,0 0.09,0.04 0.09,0.09l0 0.37c0,0.05 -0.04,0.09 -0.09,0.09 -0.05,0 -0.09,-0.04 -0.09,-0.09l0 -0.37zm-0.22 -1.42l3.98 0c0.05,0 0.09,-0.04 0.09,-0.09 0,-0.05 -0.04,-0.09 -0.09,-0.09l-3.98 0c-0.05,0 -0.09,0.04 -0.09,0.09 0,0.05 0.04,0.09 0.09,0.09zm0 -0.54l3.98 0c0.05,0 0.09,-0.04 0.09,-0.09 0,-0.05 -0.04,-0.09 -0.09,-0.09l-3.98 0c-0.05,0 -0.09,0.04 -0.09,0.09 0,0.05 0.04,0.09 0.09,0.09z"/>
 </g>
</svg>
